<?xml version="1.0" encoding="utf-8"?>
<!-- Generator: Adobe Illustrator 17.0.0, SVG Export Plug-In . SVG Version: 6.00 Build 0)  -->
<!DOCTYPE svg PUBLIC "-//W3C//DTD SVG 1.1//EN" "http://www.w3.org/Graphics/SVG/1.1/DTD/svg11.dtd">
<svg version="1.1" id="Layer_1" xmlns="http://www.w3.org/2000/svg" xmlns:xlink="http://www.w3.org/1999/xlink" x="0px" y="0px"
	 width="82px" height="81.999px" viewBox="439.013 239.021 82 81.999" enable-background="new 439.013 239.021 82 81.999"
	 xml:space="preserve">
<g>
	<path fill="#F4524E" d="M480.012,321.02c-22.607,0-40.999-18.392-40.999-41s18.392-40.999,40.999-40.999
		c22.608,0,41.001,18.392,41.001,40.999S502.62,321.02,480.012,321.02z M480.012,241.021c-21.504,0-38.999,17.495-38.999,38.999
		s17.495,39,38.999,39c21.505,0,39.001-17.495,39.001-39S501.517,241.021,480.012,241.021z"/>
</g>
<g>
	<path fill="#F4524E" d="M479.313,278.233l-11.371-12.546h3.296l9.364,10.653h0.095l9.365-10.653h3.296l-11.37,12.546H479.313z"/>
	<path fill="#F4524E" d="M479.313,294.352l-11.371-12.546h3.296l9.364,10.653h0.095l9.365-10.653h3.296l-11.37,12.546
		L479.313,294.352L479.313,294.352z"/>
</g>
</svg>
